<svg width="400" height="400" viewBox="0 0 400 400" fill="none" xmlns="http://www.w3.org/2000/svg">
<rect width="400" height="400" fill="white"/>
<path d="M16 252.5C21.5039 202.769 30.2933 177.051 60 136.5C46.5998 132.202 39.4191 127.01 27 114.5C15.7152 101.004 12.3509 92.0087 12.5 73C12.5359 53.626 15.7365 45.7477 25.5 35.5C36.9909 22.2725 46.709 18.3239 68.5 16C89.3259 15.7072 99.4299 19.3473 114.5 33C130.987 47.57 135.67 58.2538 135.5 82C155.725 74.4954 168.264 72.8896 192 73C220.236 71.6526 233.587 73.7545 253.5 82C250.002 65.1905 250.964 56.0106 263 40.5C272.479 24.6623 280.962 19.943 299.5 16C320.181 13.2138 330.411 15.1115 345.5 26.5C362.534 42.8812 367.045 55.4912 365.5 84.5C357.311 110.127 348.768 119.884 329 132C356.478 170.415 367.262 197.104 379.5 252.5C382.315 292.218 378.096 313.98 361.5 352C251.962 384.983 181.457 387.588 37.5 352C20.0307 314.798 14.6585 293.133 16 252.5Z" fill="#E5BE7F"/>
<path d="M149 326C145.553 319.578 143.836 315.726 141.5 308C140.305 302.933 140.028 300.212 140 295.5C143.273 285.604 145.315 281.838 149 275.5C154.155 270.759 157.288 268.408 163.5 265C172.87 261.913 178 260.909 187 260L238.5 259C248.298 259.604 253.55 260.597 262.5 263.5C271.19 267.36 274.793 270.357 280 276.5C284.918 287.043 286.91 292.635 289 302C286.23 310.738 284.576 315.421 281.5 323.5C277.504 328.495 275.018 330.723 270.5 334.5C263.488 338.584 259.419 340.257 252 342.5C237.513 342.185 229.323 342.143 214.5 342.5L179 343.5C172.47 341.529 168.587 340.172 161 337C156.174 333.603 153.529 331.307 149 326Z" fill="#F9F2D7"/>
<path d="M98.5 290C114.945 300.682 124.373 304.488 141.5 308C140.175 303.406 139.887 300.774 140 296C142.389 287.356 144.446 283.303 148.5 276.5C154.344 270.515 157.733 267.964 164 265C173.36 261.83 178.617 260.952 188 260L237.5 259C247.754 259.745 253.007 260.754 262 263C271.007 267.163 274.028 269.636 280 276.5C285.041 286.488 286.578 292.228 289 302.5C300.354 300.308 307.118 296.832 320 286C328.98 276.232 333.241 268.918 339 251.5C339.729 234.65 338.071 225.802 330 211.5C320.165 198.645 313.387 194.575 298 195.5C281.974 196.862 273.551 200.493 260 214.5C229.692 236.993 222.836 236.535 210 236.5C194.706 236.615 183.505 231.513 159 213.5C141.599 202.555 131.433 199.162 112.5 198.5C101.669 198.719 96.294 200.512 88.5 208C82.0137 213.988 79.3417 218.113 76.5 227C74.506 238.595 73.9839 245.213 75.5 257.5C81.7497 273.079 86.6612 280.327 98.5 290Z" fill="#83623D"/>
<path d="M202.5 288.123C193.737 289.823 191.578 292.756 190 299.623C196.553 306.5 201.329 308.63 211 310.623C223.085 311.817 229.004 310.503 233 308.123C240.452 305.031 241.562 303.388 246 298.123C241.554 289.982 237.869 287.372 228 288.123C223.386 288.586 214 288.123 214 288.123L202.5 288.123Z" fill="#E9AB83"/>
<path d="M158 144.5C148.204 157.085 145.578 165.464 146.5 183C147.233 197.689 148.986 203.144 153.5 210C165.916 218.173 173.493 223.672 184 229C178.275 222.883 175.696 219.137 172 212C169.419 206.091 168.598 202.2 168.5 194C168.794 187.781 168.629 185.28 173.5 179C179.591 171.964 183.609 169.655 191.5 167.5C201.644 166.305 207.337 166.195 217.5 167C226.147 167.762 230.406 168.76 236.5 172C244.039 176.918 247.113 180.493 251 188C252.674 194.838 252.159 199.188 251 208C245.382 221.47 242.609 223.111 234 231C246.194 224.35 252.946 220.154 264.5 210C269.372 200.644 268.861 196.139 268.5 183C266.544 167.925 262.921 159.495 252 144.5C241.518 133.625 234.488 129.535 219.5 126.5C209.045 124.883 202.461 124.778 189 126.5C176.786 129.707 169.981 133.05 158 144.5Z" fill="#F5F0D6"/>
<ellipse cx="113.5" cy="155.5" rx="19.5" ry="20.5" fill="#67471D"/>
<ellipse cx="292.5" cy="153.5" rx="19.5" ry="20.5" fill="#67471D"/>
<ellipse cx="78" cy="96.5" rx="27" ry="26.5" fill="#BE9A60"/>
<ellipse cx="308" cy="93.5" rx="27" ry="26.5" fill="#BE9A60"/>
<path d="M53 231.5C64.5236 229.788 69.306 231.151 75 237.5C76.5366 272.425 86.2916 283.843 111 297.5C111.622 304.551 110.302 308.237 106 314.5C97.3554 319.511 91.2554 320.913 76 318.5C64.2228 313.998 59.4436 310.589 53 303.5L39.5 274.5C34.5987 260.578 34.6532 254.577 36.5 245C40.3071 237.116 44.0089 234.248 53 231.5Z" fill="#EA8F65"/>
<path d="M324.5 309C320.198 302.227 317.922 298.209 314.5 290C334.844 271.744 339.539 259.537 338.5 235C342.738 231.781 345.268 231.342 350 232.5C355.694 234.203 358.142 236.4 361.5 242C364.285 246.497 365.435 250.271 366.5 260C366.848 272.356 366.554 278.7 363.5 287C356.84 300.638 352.611 305.763 344.5 312C335.253 314.359 330.853 313.591 324.5 309Z" fill="#EA8F65"/>
<circle cx="122" cy="255" r="20" fill="#EFE1D5"/>
<path d="M320.945 252.5C320.945 263.546 311.99 272.5 300.945 272.5C289.899 272.5 280.945 263.546 280.945 252.5C280.945 241.454 289.899 232.5 300.945 232.5C311.99 232.5 320.945 241.454 320.945 252.5Z" fill="#EFE1D5"/>
</svg>
