<svg width="113" height="112" viewBox="0 0 113 112" fill="none" xmlns="http://www.w3.org/2000/svg">
<path d="M56.5 111.5C87.4237 111.5 112.5 86.6561 112.5 56C112.5 25.3439 87.4237 0.5 56.5 0.5C25.5763 0.5 0.5 25.3439 0.5 56C0.5 86.6561 25.5763 111.5 56.5 111.5Z" fill="#F0E872" stroke="#674111"/>
<path d="M101 56.5C101 80.5139 81.3111 100 57 100C32.6889 100 13 80.5139 13 56.5C13 32.4861 32.6889 13 57 13C81.3111 13 101 32.4861 101 56.5Z" stroke="#C99449" stroke-width="2"/>
<path d="M85.8455 40.1258C72.0849 57.7754 65.5254 69.7357 56.0197 90.5432C45.4921 66.5349 38.4576 55.3805 26.2081 40.1407C49.2224 41.5557 63.0223 41.4206 85.8455 40.1258Z" stroke="#C38640" stroke-width="2"/>
<path d="M40.872 52.9282L41.6097 52.6326L41.4883 51.8472C39.7376 40.5225 39.4133 32.1768 41.5506 24.7207C43.6177 17.5095 48.0229 11.0136 55.944 3.4314C63.1732 11.5028 67.5922 18.1258 69.7886 25.3001C72.0512 32.6906 71.9898 40.7818 70.0156 51.824L69.8677 52.6515L70.6574 52.9395C80.5429 56.5448 86.6857 60.4904 90.8263 66.0043C94.8456 71.3565 97.065 78.2977 98.8353 88.1534C89.1197 89.4889 81.9025 89.7442 75.5551 88.1615C69.0224 86.5325 63.3053 82.9277 56.7091 76.2948L56.0531 75.6352L55.3478 76.2419C48.0154 82.5497 41.9959 85.9887 35.4842 87.4355C29.1921 88.8334 22.3363 88.3958 13.2295 86.7137C15.6866 77.098 18.36 70.433 22.3907 65.3356C26.5485 60.0776 32.2271 56.3928 40.872 52.9282Z" fill="#F4EC7F" stroke="#B78E2E" stroke-width="2"/>
<path d="M37.5691 75.9803C34.3763 77.35 30.839 78.1643 26.2606 78.7384C32.5204 70.9082 37.6552 66.4925 44.1373 63.8004C44.8438 64.8035 45.5055 65.7264 46.1427 66.5926C46.7393 67.4036 47.3146 68.1652 47.8853 68.8971C44.2171 72.2821 41.071 74.478 37.5691 75.9803ZM64.2316 69.6912L67.4834 62.3747C72.4054 64.9413 76.0195 67.2688 79.1627 70.0637C82.0658 72.6452 84.5974 75.6522 87.3895 79.672C82.825 78.9421 79.2101 78.0607 75.8107 76.6794C72.0541 75.1529 68.5149 72.9971 64.2316 69.6912ZM51.5315 31.8376C52.2255 27.7134 53.7264 24.203 55.9662 20.1094C58.261 24.6597 59.6692 28.5391 60.294 32.7921C60.9669 37.3734 60.7404 42.4539 59.6487 49.35H52.3349C50.9665 41.6627 50.7731 36.345 51.5315 31.8376Z" fill="#F8ED7A" stroke="#AC7A32" stroke-width="2"/>
</svg>
